<?xml version="1.0" encoding="UTF-8"?>
<svg version="1.1" xmlns="http://www.w3.org/2000/svg" width="256" height="256">
<path d="M0 0 C84.48 0 168.96 0 256 0 C256 84.48 256 168.96 256 256 C171.52 256 87.04 256 0 256 C0 171.52 0 87.04 0 0 Z " fill="#131314" transform="translate(0,0)"/>
<path d="M0 0 C84.48 0 168.96 0 256 0 C256 10.56 256 21.12 256 32 C171.52 31.67 87.04 31.34 0 31 C0 20.77 0 10.54 0 0 Z " fill="#121212" transform="translate(0,0)"/>
<path d="M0 0 C8.25037029 -0.09330042 16.50051462 -0.16406552 24.7512846 -0.20724869 C28.58381167 -0.22799027 32.41597386 -0.25605657 36.24829102 -0.30175781 C39.95715148 -0.3457024 43.66566437 -0.36923763 47.3747654 -0.37950897 C48.77915724 -0.38681435 50.18353333 -0.40107578 51.58777428 -0.42292023 C63.92204696 -0.60689739 75.45054444 0.8107585 85.125 9.0625 C91.51716779 15.66774005 93.35550527 22.00286589 93.38061523 31.09594727 C93.17185713 39.84805204 89.98362486 45.42521795 83.75 51.375 C78.89806247 55.3831223 73.45161544 59 67 59 C67 59.66 67 60.32 67 61 C67.59683594 61.26554687 68.19367188 61.53109375 68.80859375 61.8046875 C78.20806319 66.93167083 84.47890835 80.29407458 90.32666016 88.96777344 C98.17595682 100.55553966 105.06888138 109.04199994 119 113 C119 113.66 119 114.32 119 115 C114.46566901 115.29914389 109.93718176 115.5154026 105.39526367 115.65917969 C103.85518335 115.71913886 102.31577525 115.80075526 100.77807617 115.90527344 C88.07865156 116.74613115 88.07865156 116.74613115 83.13842773 112.59619141 C80.79939995 109.50613118 78.87795845 106.38726633 77 103 C75.93908041 101.40513533 74.8661945 99.81811508 73.77734375 98.2421875 C72.82848041 96.7879231 71.88184637 95.3322016 70.9375 93.875 C66.60454201 87.29244826 62.12563677 80.99785647 57 75 C56.34515625 74.18917969 55.6903125 73.37835938 55.015625 72.54296875 C49.60307106 66.05000191 44.80829322 62.22544848 36.24609375 61.40625 C35.44743896 61.32697266 34.64878418 61.24769531 33.82592773 61.16601562 C33.22337158 61.11123047 32.62081543 61.05644531 32 61 C32.0692079 66.40815732 32.15733314 71.81556577 32.26245117 77.22314453 C32.29555738 79.05997358 32.32363317 80.89690086 32.34643555 82.73388672 C32.38024631 85.38551411 32.43257293 88.03625283 32.48828125 90.6875 C32.49467117 91.49928711 32.5010611 92.31107422 32.50764465 93.14746094 C32.64855878 98.7017215 33.63440527 102.94602523 36 108 C40.19910675 111.60504962 44.59125056 112.55846943 50 113 C50 113.66 50 114.32 50 115 C33.17 115 16.34 115 -1 115 C-1 114.34 -1 113.68 -1 113 C0.15628906 112.60167969 0.15628906 112.60167969 1.3359375 112.1953125 C2.33882813 111.84210938 3.34171875 111.48890625 4.375 111.125 C5.37273437 110.77695313 6.37046875 110.42890625 7.3984375 110.0703125 C10.10442118 109.15217498 10.10442118 109.15217498 12 107 C13.95985434 101.17622289 14.29106958 95.25446781 14.25878906 89.16308594 C14.2622937 88.33099609 14.26579834 87.49890625 14.26940918 86.64160156 C14.27813068 83.92243834 14.27241371 81.20354034 14.265625 78.484375 C14.26697389 76.58107453 14.2689163 74.6777744 14.27142334 72.7744751 C14.27436117 68.8004628 14.27011834 64.82654082 14.26074219 60.85253906 C14.24931728 55.76274349 14.25593481 50.67315817 14.26788712 45.58337021 C14.27511545 41.65942806 14.27281384 37.73553576 14.26763153 33.8115921 C14.26629934 31.93453191 14.26792764 30.05746716 14.27259064 28.18041229 C14.27767528 25.5599314 14.26991979 22.93979146 14.25878906 20.31933594 C14.26283752 19.54728821 14.26688599 18.77524048 14.27105713 17.97979736 C14.23895131 13.89524964 13.9740451 10.61562493 12 7 C8.22973959 4.00092922 4.61662448 2.31903557 0 1 C0 0.67 0 0.34 0 0 Z " fill="#FCFCFC" transform="translate(121,113)"/>
<path d="M0 0 C10.16763859 0.05487638 17.69095591 1.940536 25.9375 8.1875 C31.4111277 13.73996596 33.8695347 19.64407932 34.3125 27.4375 C34.13571399 34.32036885 31.89024669 40.83418989 27.5 46.125 C26.654375 46.805625 25.80875 47.48625 24.9375 48.1875 C24.195 48.88875 23.4525 49.59 22.6875 50.3125 C14.96587658 55.57724324 4.45098805 57.2524981 -4.74804688 57.20825195 C-5.96083313 57.20375786 -5.96083313 57.20375786 -7.19812012 57.19917297 C-7.81336548 57.19532089 -8.42861084 57.19146881 -9.0625 57.1875 C-9.08792331 50.33732905 -9.10539769 43.48717035 -9.11743164 36.63696289 C-9.12245022 34.30818222 -9.1292665 31.97940469 -9.13793945 29.65063477 C-9.15011355 26.29702987 -9.15575318 22.94346676 -9.16015625 19.58984375 C-9.16531754 18.55415756 -9.17047882 17.51847137 -9.17579651 16.45140076 C-9.17619642 11.2601099 -9.05886026 6.29084063 -8.0625 1.1875 C-6.11594515 -0.75905485 -2.57242936 0.01267207 0 0 Z " fill="#141414" transform="translate(162.0625,114.8125)"/>
<path d="M0 0 C10.16596706 0.05486736 17.69345132 1.93908914 25.9375 8.1875 C30.47456595 12.78872648 31.8483046 15.65232763 32.9375 22.1875 C19.4075 22.1875 5.8775 22.1875 -8.0625 22.1875 C-8.0625 33.4075 -8.0625 44.6275 -8.0625 56.1875 C-5.4225 56.1875 -2.7825 56.1875 -0.0625 56.1875 C-0.0625 56.5175 -0.0625 56.8475 -0.0625 57.1875 C-3.0325 57.1875 -6.0025 57.1875 -9.0625 57.1875 C-9.08727942 50.33732362 -9.10539768 43.48717354 -9.11743164 36.63696289 C-9.12245022 34.30818222 -9.1292665 31.97940469 -9.13793945 29.65063477 C-9.15011355 26.29702987 -9.15575318 22.94346676 -9.16015625 19.58984375 C-9.16531754 18.55415756 -9.17047882 17.51847137 -9.17579651 16.45140076 C-9.17619642 11.2601099 -9.05886026 6.29084063 -8.0625 1.1875 C-6.11594515 -0.75905485 -2.57242936 0.01267207 0 0 Z " fill="#1D1D1E" transform="translate(162.0625,114.8125)"/>
<path d="M0 0 C1.226548 0.00303635 1.226548 0.00303635 2.47787476 0.00613403 C3.76315567 0.00350555 3.76315567 0.00350555 5.07440186 0.00082397 C7.9211527 -0.00359561 10.76784197 -0.00065618 13.61459351 0.00271606 C15.58375053 0.00204306 17.55290747 0.00107306 19.52206421 -0.00018311 C23.65480335 -0.00166022 27.78752093 0.00049492 31.92025757 0.00515747 C37.23033871 0.01085476 42.54036932 0.00757583 47.85044861 0.00158501 C51.91834904 -0.00202023 55.9862374 -0.00088219 60.05413818 0.0017128 C62.01265468 0.00238217 63.97117226 0.00155329 65.9296875 -0.00076675 C68.6619255 -0.00329267 71.39408047 0.00054645 74.12631226 0.00613403 C74.94401093 0.0041098 75.76170959 0.00208557 76.60418701 0 C82.18783105 0.02126611 82.18783105 0.02126611 83.30209351 1.13552856 C83.34290134 3.1351122 83.34463707 5.1359811 83.30209351 7.13552856 C71.71520949 7.15865084 60.12833092 7.17644306 48.54142857 7.18734074 C43.16175588 7.19256982 37.78209893 7.19966791 32.4024353 7.21096802 C27.21534507 7.22179601 22.02827001 7.22780521 16.84116936 7.23040581 C14.85753071 7.23226022 12.87389293 7.23588113 10.8902607 7.24125862 C8.12200215 7.24846789 5.35380712 7.24951956 2.58554077 7.24905396 C1.75692032 7.25264923 0.92829987 7.25624451 0.0745697 7.25994873 C-5.58385433 7.24958073 -5.58385433 7.24958073 -6.69790649 6.13552856 C-6.82290649 3.63552856 -6.82290649 3.63552856 -6.69790649 1.13552856 C-4.88919188 -0.67318605 -2.40777343 0.00917035 0 0 Z " fill="#353537" transform="translate(29.697906494140625,38.864471435546875)"/>
<path d="M0 0 C1.94222694 -0.00956978 1.94222694 -0.00956978 3.9236908 -0.01933289 C5.34829674 -0.02086144 6.77290319 -0.02197547 8.19750977 -0.02270508 C9.64860569 -0.02591595 11.09970128 -0.02927989 12.55079651 -0.03279114 C15.59653474 -0.03878879 18.64224456 -0.04063039 21.68798828 -0.04003906 C25.59677458 -0.03993741 29.50537933 -0.05358942 33.41412258 -0.07081127 C36.41234682 -0.08191304 39.41052692 -0.08395883 42.40876961 -0.08342934 C43.85011483 -0.08461222 45.29146109 -0.08905118 46.73278618 -0.0967617 C48.74631297 -0.10652419 50.75989269 -0.10242903 52.7734375 -0.09765625 C54.49432838 -0.09979378 54.49432838 -0.09979378 56.24998474 -0.10197449 C58.95141602 0.14526367 58.95141602 0.14526367 60.95141602 2.14526367 C60.41570173 5.68097796 60.41570173 5.68097796 58.95141602 7.14526367 C56.93191393 7.24461515 54.90890687 7.27325875 52.88696289 7.2746582 C50.93989441 7.27938644 50.93989441 7.27938644 48.95349121 7.28421021 C47.5257158 7.28242043 46.0979407 7.28036947 44.67016602 7.27807617 C43.21667464 7.27874925 41.76318337 7.27971931 40.30969238 7.28097534 C37.25975475 7.28245213 34.20984635 7.28029837 31.15991211 7.27563477 C27.24211042 7.26993748 23.32437723 7.27321658 19.40657806 7.27920723 C16.40410848 7.28281336 13.40165525 7.28167402 10.39918518 7.27907944 C8.95422864 7.27841031 7.50927063 7.27923809 6.0643158 7.28155899 C4.04816718 7.28408632 2.03201339 7.27955419 0.01586914 7.2746582 C-1.70835266 7.27346481 -1.70835266 7.27346481 -3.46740723 7.27224731 C-6.04858398 7.14526367 -6.04858398 7.14526367 -7.04858398 6.14526367 C-7.17358398 3.64526367 -7.17358398 3.64526367 -7.04858398 1.14526367 C-5.23654558 -0.66677473 -2.43875799 0.00810845 0 0 Z " fill="#252528" transform="translate(30.048583984375,58.854736328125)"/>
<path d="M0 0 C10.19762846 0 10.19762846 0 13.3125 1.6875 C13.92738281 2.00074219 14.54226562 2.31398437 15.17578125 2.63671875 C17 4 17 4 21 9 C14.4 9 7.8 9 1 9 C1 18.9 1 28.8 1 39 C0.67 39 0.34 39 0 39 C0 26.13 0 13.26 0 0 Z " fill="#181818" transform="translate(153,174)"/>
<path d="M0 0 C0.33 0 0.66 0 1 0 C1 2.31 1 4.62 1 7 C2.27617187 6.89300781 3.55234375 6.78601563 4.8671875 6.67578125 C6.53639901 6.55387254 8.20567345 6.43282323 9.875 6.3125 C10.71675781 6.23966797 11.55851563 6.16683594 12.42578125 6.09179688 C13.23144531 6.03701172 14.03710938 5.98222656 14.8671875 5.92578125 C15.98262939 5.83937378 15.98262939 5.83937378 17.12060547 5.7512207 C17.74080566 5.83331787 18.36100586 5.91541504 19 6 C19.99 7.485 19.99 7.485 21 9 C14.4 9 7.8 9 1 9 C1 18.9 1 28.8 1 39 C0.67 39 0.34 39 0 39 C0 26.13 0 13.26 0 0 Z " fill="#4B4A4B" transform="translate(153,174)"/>
<path d="M0 0 C18.15 0 36.3 0 55 0 C55 0.33 55 0.66 55 1 C40.15 1 25.3 1 10 1 C10 1.66 10 2.32 10 3 C6.7 2.34 3.4 1.68 0 1 C0 0.67 0 0.34 0 0 Z " fill="#242325" transform="translate(186,113)"/>
<path d="M0 0 C1.52648786 0.08384385 3.05617824 0.11781972 4.58496094 0.11352539 C5.48559265 0.11344986 6.38622437 0.11337433 7.31414795 0.11329651 C8.75966034 0.10555458 8.75966034 0.10555458 10.234375 0.09765625 C11.22753723 0.0962413 12.22069946 0.09482635 13.24395752 0.09336853 C16.41266912 0.08777588 19.58130979 0.0752247 22.75 0.0625 C24.89973856 0.05748405 27.04947823 0.05292131 29.19921875 0.04882812 C34.46616999 0.03780886 39.73307993 0.021078 45 0 C45 0.66 45 1.32 45 2 C28.17 2 11.34 2 -6 2 C-6 1.34 -6 0.68 -6 0 C-3.45113226 -1.27443387 -2.69702079 -0.71069525 0 0 Z " fill="#DFDFDF" transform="translate(126,226)"/>
</svg>
